<?xml version="1.0" encoding="UTF-8" standalone="no"?>
<svg width="883px" height="275px" viewBox="0 0 883 275" version="1.1" xmlns="http://www.w3.org/2000/svg" xmlns:xlink="http://www.w3.org/1999/xlink">
    <!-- Generator: Sketch 3.6.1 (26313) - http://www.bohemiancoding.com/sketch -->
    <title>logo-blue</title>
    <desc>Created with Sketch.</desc>
    <defs></defs>
    <g id="Page-1" stroke="none" stroke-width="1" fill="none" fill-rule="evenodd">
        <g id="logo-blue">
            <g id="Group-4" transform="translate(-5.000000, 0.000000)">
                <rect id="Rectangle-21" fill="#D1163D" transform="translate(629.902988, 133.091425) rotate(25.000000) translate(-629.902988, -133.091425) " x="614.308101" y="-2.84217094e-13" width="31.1897733" height="266.18285" rx="25"></rect>
                <path d="M24.0694834,150.282751 C24.3954052,150.495634 24.7313993,150.698271 25.0772738,150.889992 L31.0927213,154.224409 L35.6108407,156.760117 L35.62928,156.739065 L146.76673,218.343559 C154.499791,222.630065 164.238069,219.836625 168.522694,212.106958 C172.80826,204.375591 170.01359,194.637246 162.282727,190.351958 L65.2825905,136.583905 L161.389257,81.096695 C169.046331,76.6758814 171.667469,66.8898196 167.248596,59.2361069 C162.828751,51.5807112 153.041998,48.9605926 145.387102,53.3801493 L53.4151574,106.480176 L53.4220516,106.460591 L0.237180976,136.907328 L24.0694834,150.282751 Z" id="Combined-Shape" fill="#D1163D"></path>
                <path d="M746.061226,151.18704 C746.387148,151.399924 746.723142,151.60256 747.069017,151.794281 L753.084464,155.128698 L757.602583,157.664406 L757.621023,157.643354 L868.758473,219.247848 C876.491534,223.534354 886.229812,220.740914 890.514437,213.011247 C894.800003,205.27988 892.005333,195.541535 884.27447,191.256248 L787.274333,137.488194 L883.381,82.0009842 C891.038073,77.5801705 893.659212,67.7941088 889.240339,60.140396 C884.820494,52.4850004 875.033741,49.8648817 867.378844,54.2844384 L775.4069,107.384465 L775.413794,107.36488 L722.228924,137.811617 L746.061226,151.18704 Z" id="Combined-Shape" fill="#D1163D" transform="translate(807.376396, 136.697576) rotate(-180.000000) translate(-807.376396, -136.697576) "></path>
                <g id="Group-3" transform="translate(214.652058, 0.000000)">
                    <rect id="Rectangle-8" fill="#54B8EA" x="0" y="0" width="304.782205" height="275" rx="14"></rect>
                    <path d="M304.782205,34.4894958 L304.782205,13.9951464 C304.782205,6.27544136 298.513814,0 290.781362,0 L14.0008428,0 C6.26100502,0 0,6.26584047 0,13.9951464 L0,34.4894958 L0,50.9698276 L304.782205,50.9698276 L304.782205,34.4894958 Z" id="Combined-Shape" fill="#399FD2"></path>
                    <ellipse id="Oval-7" fill="#FF6059" cx="23.125498" cy="25.4849138" rx="11.2662683" ry="11.2607759"></ellipse>
                    <ellipse id="Oval-7" fill="#FFBD2E" cx="50.4017264" cy="25.4849138" rx="11.2662683" ry="11.2607759"></ellipse>
                    <ellipse id="Oval-7" fill="#29CE42" cx="76.4920319" cy="25.4849138" rx="11.2662683" ry="11.2607759"></ellipse>
                    <g id="Group" transform="translate(29.000000, 88.000000)" fill="#FFFFFF" opacity="0.4">
                        <path d="M0.648074369,136.030172 L247.320053,136.030172 L247.320053,149.068966 L0.648074369,149.068966 L0.648074369,136.030172 Z M0.648074369,101.655172 L247.320053,101.655172 L247.320053,114.693966 L0.648074369,114.693966 L0.648074369,101.655172 Z M0.648074369,67.2801724 L114.914348,67.2801724 L114.914348,80.3189655 L0.648074369,80.3189655 L0.648074369,67.2801724 Z M0.64792936,35.2800293 L114.914203,35.2800293 L114.914203,48.3188224 L0.64792936,48.3188224 L0.64792936,35.2800293 Z M0.648074369,0.900862069 L114.914348,0.900862069 L114.914348,13.9396552 L0.648074369,13.9396552 L0.648074369,0.900862069 Z" id="Combined-Shape"></path>
                        <rect id="Rectangle-14" x="131" y="0.900862069" width="116.320053" height="79.4181034"></rect>
                    </g>
                </g>
            </g>
        </g>
    </g>
</svg>