<svg id="Layer_1" data-name="Layer 1" xmlns="http://www.w3.org/2000/svg" viewBox="0 0 416.3 416.3"><defs><style>.cls-1{fill:#fff;}</style></defs><title>login-icon</title><path class="cls-1" d="M409.3,13V409.3H13V13H409.3m10-10H3V419.3H419.3V3h0Z" transform="translate(-3 -3)"/><path class="cls-1" d="M296.2,363.2H126.1c-31,0-52-18.9-52-50.4,0-44,10.3-111.6,67.4-111.6,6,0,31.5,27.1,69.7,27.1s63.7-27.1,69.7-27.1c57,0,67.4,67.6,67.4,111.6C348.2,344.3,327.2,363.2,296.2,363.2ZM211.2,208.7a74.8,74.8,0,1,1,74.8-74.8A74.8,74.8,0,0,1,211.2,208.7Z" transform="translate(-3 -3)"/></svg>